<svg width="642" height="367" viewBox="0 0 642 367" fill="none" xmlns="http://www.w3.org/2000/svg">
<rect x="10" y="10" width="622" height="347" rx="30" stroke="url(#paint0_linear_238_339)" stroke-width="20"/>
<path d="M399 88C410.598 88 420 97.402 420 109V215.5C420 227.098 410.598 236.5 399 236.5H262.057L220.85 277.707C207.62 290.936 185 281.566 185 262.857V239.5H167C155.402 239.5 146 230.098 146 218.5V109C146 97.402 155.402 88 167 88H399ZM498 156.5C506.837 156.5 514 163.663 514 172.5V244.5C514 253.337 506.837 260.5 498 260.5H475.834C474.821 260.5 474 261.321 474 262.334C474 274.597 459.227 280.797 450.476 272.207L439.715 261.646C438.967 260.911 437.96 260.5 436.912 260.5H389.143C384.899 260.5 380.829 258.814 377.828 255.813L369.758 247.742C367.415 245.399 367.415 241.601 369.758 239.258C372.101 236.915 375.899 236.915 378.242 239.258L386.313 247.328C387.064 248.078 388.082 248.5 389.143 248.5H436.912C441.104 248.5 445.129 250.145 448.12 253.081L458.881 263.643C460.041 264.781 462 263.96 462 262.334C462 254.694 468.194 248.5 475.834 248.5H498C500.209 248.5 502 246.709 502 244.5V172.5C502 170.291 500.209 168.5 498 168.5H436C432.686 168.5 430 165.814 430 162.5C430 159.186 432.686 156.5 436 156.5H498ZM168 217.5H186C197.598 217.5 207 226.902 207 238.5V260.443L246.793 220.65L247.166 220.286C251.065 216.576 256.247 214.5 261.643 214.5H398V110H168V217.5ZM319.882 130.077C323.981 125.594 330.939 125.283 335.423 129.382C339.906 133.481 340.217 140.439 336.118 144.923L294.82 190.092C287.032 198.61 273.828 199.246 265.257 191.516L247.133 175.168C242.622 171.099 242.263 164.144 246.332 159.633C250.401 155.122 257.356 154.763 261.867 158.832L279.254 174.513L319.882 130.077Z" fill="url(#paint1_linear_238_339)"/>
<defs>
<linearGradient id="paint0_linear_238_339" x1="0" y1="184.003" x2="642" y2="184.003" gradientUnits="userSpaceOnUse">
<stop stop-color="#FF763B"/>
<stop offset="0.975962" stop-color="#FFBE56"/>
</linearGradient>
<linearGradient id="paint1_linear_238_339" x1="330" y1="88" x2="330" y2="283.9" gradientUnits="userSpaceOnUse">
<stop stop-color="#FF763B"/>
<stop offset="1" stop-color="#FFBE56"/>
</linearGradient>
</defs>
</svg>
