<svg width="642" height="367" viewBox="0 0 642 367" fill="none" xmlns="http://www.w3.org/2000/svg">
<rect x="10" y="10" width="622" height="347" rx="30" stroke="url(#paint0_linear_238_338)" stroke-width="20"/>
<path d="M422.227 296.529C427.197 296.529 431.227 300.559 431.227 305.529C431.227 310.5 427.197 314.529 422.227 314.529H398.682C393.711 314.529 389.682 310.5 389.682 305.529C389.682 300.559 393.711 296.529 398.682 296.529H422.227ZM197.037 299.492C200.371 299.492 203.074 302.195 203.074 305.529C203.074 308.864 200.371 311.566 197.037 311.566C193.703 311.566 191 308.864 191 305.529C191 302.195 193.703 299.492 197.037 299.492ZM222.394 299.492C225.728 299.492 228.431 302.195 228.431 305.529C228.431 308.864 225.728 311.566 222.394 311.566C219.059 311.566 216.356 308.864 216.356 305.529C216.357 302.195 219.059 299.492 222.394 299.492ZM247.75 299.492C251.084 299.492 253.787 302.195 253.787 305.529C253.787 308.864 251.084 311.566 247.75 311.566C244.416 311.566 241.713 308.864 241.713 305.529C241.713 302.195 244.416 299.492 247.75 299.492ZM273.106 299.492C276.441 299.492 279.144 302.195 279.145 305.529C279.145 308.864 276.441 311.566 273.106 311.566C269.772 311.566 267.069 308.863 267.069 305.529C267.069 302.195 269.772 299.492 273.106 299.492ZM298.463 299.492C301.797 299.492 304.501 302.195 304.501 305.529C304.501 308.864 301.797 311.566 298.463 311.566C295.129 311.566 292.426 308.863 292.426 305.529C292.426 302.195 295.129 299.492 298.463 299.492ZM323.819 299.492C327.154 299.492 329.857 302.195 329.857 305.529C329.857 308.864 327.154 311.566 323.819 311.566C320.485 311.566 317.782 308.863 317.782 305.529C317.782 302.195 320.485 299.492 323.819 299.492ZM349.176 299.492C352.51 299.492 355.214 302.195 355.214 305.529C355.214 308.864 352.51 311.566 349.176 311.566C345.842 311.566 343.139 308.863 343.139 305.529C343.139 302.195 345.842 299.492 349.176 299.492ZM374.532 299.492C377.866 299.492 380.57 302.195 380.57 305.529C380.57 308.864 377.867 311.566 374.532 311.566C371.198 311.566 368.495 308.863 368.495 305.529C368.495 302.195 371.198 299.492 374.532 299.492ZM285.444 176.076C295.109 176.076 302.944 183.911 302.944 193.576V264.739C302.944 274.404 295.109 282.239 285.444 282.239H269.221C259.556 282.239 251.721 274.404 251.721 264.739V193.576C251.721 183.911 259.556 176.076 269.221 176.076H285.444ZM222.054 211.092C231.719 211.092 239.554 218.927 239.554 228.592V264.738C239.554 274.403 231.719 282.238 222.054 282.238H205.83C196.165 282.238 188.33 274.403 188.33 264.738V228.592C188.33 218.927 196.165 211.092 205.83 211.092H222.054ZM348.836 211.092C358.501 211.092 366.336 218.927 366.336 228.592V264.738C366.336 274.403 358.501 282.238 348.836 282.238H332.612C322.947 282.238 315.112 274.403 315.112 264.738V228.592C315.112 218.927 322.947 211.092 332.612 211.092H348.836ZM412.228 144.078C421.892 144.078 429.728 151.913 429.728 161.578V264.738C429.728 274.403 421.892 282.238 412.228 282.238H396.004C386.339 282.238 378.504 274.403 378.504 264.738V161.578C378.504 151.913 386.339 144.078 396.004 144.078H412.228ZM269.221 191.076C267.84 191.076 266.721 192.196 266.721 193.576V264.739C266.721 266.12 267.84 267.239 269.221 267.239H285.444C286.825 267.239 287.944 266.12 287.944 264.739V193.576C287.944 192.195 286.825 191.076 285.444 191.076H269.221ZM205.83 226.092C204.449 226.092 203.33 227.211 203.33 228.592V264.738C203.33 266.119 204.449 267.238 205.83 267.238H222.054C223.434 267.238 224.554 266.119 224.554 264.738V228.592C224.554 227.211 223.434 226.092 222.054 226.092H205.83ZM332.612 226.092C331.232 226.092 330.112 227.211 330.112 228.592V264.738C330.112 266.119 331.232 267.238 332.612 267.238H348.836C350.217 267.238 351.336 266.119 351.336 264.738V228.592C351.336 227.211 350.217 226.092 348.836 226.092H332.612ZM396.004 159.078C394.623 159.078 393.504 160.197 393.504 161.578V264.738C393.504 266.119 394.623 267.238 396.004 267.238H412.228C413.608 267.238 414.728 266.119 414.728 264.738V161.578C414.728 160.198 413.608 159.078 412.228 159.078H396.004ZM433.341 112.94C433.341 117.911 429.311 121.94 424.341 121.94C419.37 121.94 415.341 117.911 415.341 112.94V97.4463L360.091 158.809C360.01 158.898 359.925 158.984 359.842 159.069C360.365 160.807 360.647 162.65 360.647 164.559L360.641 165.049C360.38 175.325 351.969 183.576 341.63 183.576L341.139 183.569C331.026 183.313 322.874 175.162 322.618 165.049L322.612 164.559C322.612 164.307 322.618 164.056 322.628 163.807L290.384 145.382C287.089 148.12 282.857 149.768 278.238 149.768L277.747 149.761C274.629 149.682 271.699 148.851 269.128 147.445C268.784 147.814 268.407 148.162 267.992 148.478L206.11 195.568C202.155 198.578 196.508 197.812 193.498 193.856C190.488 189.901 191.255 184.254 195.21 181.244L257.092 134.153C257.796 133.617 258.555 133.202 259.343 132.902C259.281 132.355 259.241 131.801 259.227 131.24L259.221 130.75C259.221 120.247 267.735 111.733 278.238 111.732L278.729 111.738C288.344 111.982 296.185 119.362 297.154 128.78C297.786 128.973 298.407 129.236 299.005 129.577L331.764 148.296C334.64 146.547 338.018 145.541 341.63 145.541L342.12 145.547C343.846 145.591 345.515 145.865 347.097 146.339L404.126 83H387.212C382.241 83 378.212 78.9706 378.212 74C378.212 69.0294 382.241 65 387.212 65H433.341V112.94ZM341.63 160.541C339.411 160.541 337.612 162.34 337.612 164.559C337.612 166.777 339.411 168.576 341.63 168.576C343.848 168.576 345.647 166.777 345.647 164.559C345.647 162.34 343.849 160.541 341.63 160.541ZM278.238 126.732C276.02 126.733 274.221 128.531 274.221 130.75C274.221 132.969 276.02 134.767 278.238 134.768C280.457 134.767 282.256 132.969 282.256 130.75C282.256 128.531 280.457 126.733 278.238 126.732Z" fill="url(#paint1_linear_238_338)"/>
<defs>
<linearGradient id="paint0_linear_238_338" x1="0" y1="184.003" x2="642" y2="184.003" gradientUnits="userSpaceOnUse">
<stop stop-color="#FF763B"/>
<stop offset="0.975962" stop-color="#FFBE56"/>
</linearGradient>
<linearGradient id="paint1_linear_238_338" x1="310.835" y1="65" x2="310.835" y2="314.529" gradientUnits="userSpaceOnUse">
<stop stop-color="#FF763B"/>
<stop offset="1" stop-color="#FFBE56"/>
</linearGradient>
</defs>
</svg>
