<svg width="642" height="367" viewBox="0 0 642 367" fill="none" xmlns="http://www.w3.org/2000/svg">
<path fill-rule="evenodd" clip-rule="evenodd" d="M485.18 162.16C465.107 162.16 448.239 148.43 443.457 129.85H394.08C383.551 129.85 374.565 137.463 372.835 147.848L371.063 158.473C369.383 168.559 364.28 177.337 357.064 183.7C364.28 190.063 369.383 198.841 371.063 208.927L372.835 219.552C374.565 229.937 383.551 237.55 394.08 237.55H400.377C405.159 218.97 422.027 205.24 442.1 205.24C465.893 205.24 485.18 224.527 485.18 248.32C485.18 272.113 465.893 291.4 442.1 291.4C422.027 291.4 405.159 277.67 400.377 259.09H394.08C373.021 259.09 355.05 243.865 351.587 223.093L349.815 212.468C348.085 202.083 339.099 194.47 328.57 194.47H311.503C306.721 213.05 289.853 226.78 269.78 226.78C249.707 226.78 232.839 213.05 228.057 194.47H203.803C199.021 213.05 182.153 226.78 162.08 226.78C138.288 226.78 119 207.493 119 183.7C119 159.907 138.288 140.62 162.08 140.62C182.153 140.62 199.021 154.35 203.803 172.93H228.057C232.839 154.35 249.707 140.62 269.78 140.62C289.853 140.62 306.721 154.35 311.503 172.93H328.57C339.099 172.93 348.085 165.317 349.815 154.932L351.587 144.307C355.05 123.535 373.021 108.31 394.08 108.31H443.457C448.239 89.73 465.107 76 485.18 76C508.973 76 528.26 95.2873 528.26 119.08C528.26 142.873 508.973 162.16 485.18 162.16ZM485.18 140.62C497.075 140.62 506.72 130.975 506.72 119.08C506.72 107.185 497.075 97.54 485.18 97.54C473.285 97.54 463.64 107.185 463.64 119.08C463.64 130.975 473.285 140.62 485.18 140.62ZM162.08 205.24C173.975 205.24 183.62 195.595 183.62 183.7C183.62 171.805 173.975 162.16 162.08 162.16C150.184 162.16 140.54 171.805 140.54 183.7C140.54 195.595 150.184 205.24 162.08 205.24ZM291.32 183.7C291.32 195.595 281.675 205.24 269.78 205.24C257.885 205.24 248.24 195.595 248.24 183.7C248.24 171.805 257.885 162.16 269.78 162.16C281.675 162.16 291.32 171.805 291.32 183.7ZM463.64 248.32C463.64 260.215 453.995 269.86 442.1 269.86C430.205 269.86 420.56 260.215 420.56 248.32C420.56 236.425 430.205 226.78 442.1 226.78C453.995 226.78 463.64 236.425 463.64 248.32Z" fill="url(#paint0_linear_238_335)"/>
<rect x="10" y="10" width="622" height="347" rx="30" stroke="url(#paint1_linear_238_335)" stroke-width="20"/>
<defs>
<linearGradient id="paint0_linear_238_335" x1="356.5" y1="69" x2="348" y2="285.5" gradientUnits="userSpaceOnUse">
<stop stop-color="#FF763B"/>
<stop offset="1" stop-color="#FFBE56"/>
</linearGradient>
<linearGradient id="paint1_linear_238_335" x1="0" y1="184.003" x2="642" y2="184.003" gradientUnits="userSpaceOnUse">
<stop stop-color="#FF763B"/>
<stop offset="0.975962" stop-color="#FFBE56"/>
</linearGradient>
</defs>
</svg>
