<svg width="642" height="367" viewBox="0 0 642 367" fill="none" xmlns="http://www.w3.org/2000/svg">
<rect x="10" y="10" width="622" height="347" rx="30" stroke="url(#paint0_linear_238_336)" stroke-width="20"/>
<path d="M513.811 212.698L590.811 253.515L601.516 259.188L590.514 264.264L570.545 273.475L584.588 299.085L586.984 303.455L583.128 306.612L565.993 320.643L561.041 324.697L557.314 319.493L541.805 297.837L531.106 311.059L529.306 313.284H518.933L518.179 308.156L505.063 218.872L503.342 207.149L513.811 212.698ZM528.419 295.302L537.432 284.165L542.388 278.041L546.975 284.445L563.343 307.302L571.669 300.484L556.932 273.604L553.839 267.966L559.679 265.271L574.483 258.441L518.658 228.851L528.419 295.302ZM319.597 89.5703C321.491 82.9317 328.408 79.0855 335.047 80.9795C341.686 82.8736 345.532 89.791 343.638 96.4297L294.08 270.127C292.186 276.765 285.268 280.612 278.63 278.718C271.992 276.824 268.146 269.907 270.039 263.269L319.597 89.5703ZM244.296 87.5967C248.906 82.458 256.808 82.0293 261.947 86.6387C267.086 91.2483 267.516 99.151 262.906 104.29L196.628 178.179L263.086 255.612C267.582 260.851 266.98 268.742 261.742 273.238C256.504 277.734 248.611 277.132 244.115 271.894L170.515 186.139L163.371 177.815L170.695 169.65L244.296 87.5967ZM361.053 86.6387C366.192 82.0293 374.094 82.458 378.704 87.5967L452.305 169.65L459.629 177.815L452.485 186.139L378.885 271.894C374.389 277.132 366.496 277.734 361.258 273.238C356.02 268.742 355.418 260.851 359.914 255.612L426.372 178.179L360.094 104.29C355.484 99.151 355.914 91.2483 361.053 86.6387ZM472.5 47C478.851 47 484 52.1487 484 58.5C484 64.8513 478.851 70 472.5 70C466.149 70 461 64.8513 461 58.5C461 52.1487 466.149 47 472.5 47ZM524.5 47C530.851 47 536 52.1487 536 58.5C536 64.8513 530.851 70 524.5 70C518.149 70 513 64.8513 513 58.5C513 52.1487 518.149 47 524.5 47ZM576.5 47C582.851 47 588 52.1487 588 58.5C588 64.8513 582.851 70 576.5 70C570.149 70 565 64.8513 565 58.5C565 52.1487 570.149 47 576.5 47Z" fill="url(#paint1_linear_238_336)"/>
<defs>
<linearGradient id="paint0_linear_238_336" x1="0" y1="184.003" x2="642" y2="184.003" gradientUnits="userSpaceOnUse">
<stop stop-color="#FF763B"/>
<stop offset="0.975962" stop-color="#FFBE56"/>
</linearGradient>
<linearGradient id="paint1_linear_238_336" x1="382.443" y1="47" x2="382.443" y2="324.697" gradientUnits="userSpaceOnUse">
<stop stop-color="#FF763B"/>
<stop offset="1" stop-color="#FFBE56"/>
</linearGradient>
</defs>
</svg>
