<svg width="642" height="367" viewBox="0 0 642 367" fill="none" xmlns="http://www.w3.org/2000/svg">
<rect x="10" y="10" width="622" height="347" rx="30" stroke="url(#paint0_linear_238_356)" stroke-width="20"/>
<path d="M399.249 56C405.324 56.0002 410.249 60.925 410.249 67V101.33H436.627C454.576 101.33 469.127 115.881 469.127 133.83V279.467C469.127 297.416 454.576 311.967 436.627 311.967H204.5C186.551 311.967 172 297.416 172 279.467V133.83C172 115.881 186.551 101.33 204.5 101.33H230.879V67C230.879 60.925 235.804 56.0002 241.879 56C247.954 56 252.879 60.9249 252.879 67V101.33H388.249V67C388.249 60.925 393.174 56.0002 399.249 56ZM204.5 126.33C200.358 126.33 197 129.688 197 133.83V279.467C197 283.609 200.358 286.967 204.5 286.967H436.627C440.769 286.967 444.127 283.609 444.127 279.467V133.83C444.127 129.688 440.769 126.33 436.627 126.33H204.5ZM275.373 247.553C275.852 242.051 280.7 237.978 286.202 238.456C291.7 238.935 295.771 243.777 295.299 249.274C295.299 249.272 295.3 249.267 295.3 249.264C295.3 249.257 295.301 249.25 295.302 249.243C295.303 249.23 295.304 249.217 295.305 249.204C295.307 249.179 295.308 249.155 295.31 249.134C295.312 249.091 295.315 249.056 295.316 249.027C295.319 248.971 295.319 248.941 295.319 248.935C295.319 248.941 295.319 249.015 295.33 249.139C295.356 249.432 295.43 249.89 295.615 250.394C295.9 251.167 296.568 252.511 299.066 253.61C302.92 255.306 305.459 255.622 308.343 255.729C311.094 255.832 315.812 255.67 321.424 256.534C325.523 256.147 328.924 256.232 331.098 256.15C333.982 256.043 336.52 255.727 340.374 254.031C342.872 252.932 343.54 251.588 343.825 250.814C344.011 250.311 344.085 249.853 344.11 249.56C344.121 249.438 344.121 249.365 344.121 249.355C344.121 249.363 344.121 249.393 344.124 249.448C344.125 249.476 344.128 249.512 344.131 249.555C344.132 249.576 344.134 249.6 344.136 249.625C344.137 249.637 344.138 249.651 344.139 249.664C344.139 249.671 344.14 249.678 344.141 249.685C344.141 249.688 344.141 249.694 344.142 249.695C343.669 244.198 347.74 239.355 353.238 238.877C358.74 238.399 363.589 242.472 364.067 247.974L354.105 248.84C363.946 247.984 364.066 247.979 364.068 247.984L364.071 248.02C364.073 248.035 364.074 248.052 364.075 248.069C364.078 248.104 364.08 248.141 364.083 248.181C364.088 248.26 364.095 248.351 364.1 248.451C364.11 248.652 364.118 248.895 364.12 249.176C364.125 249.735 364.108 250.455 364.034 251.298C363.888 252.969 363.513 255.227 362.592 257.729C360.662 262.967 356.477 268.796 348.429 272.338C341.736 275.283 336.595 275.959 331.844 276.137C327.132 276.313 324.683 276.082 320.385 276.833C318.151 277.223 315.961 276.837 314.09 275.872C312.154 275.786 310.228 275.814 307.597 275.716C302.845 275.538 297.705 274.862 291.012 271.917C282.963 268.375 278.779 262.546 276.849 257.308C275.927 254.806 275.552 252.548 275.406 250.877C275.333 250.034 275.315 249.314 275.32 248.755C275.323 248.474 275.331 248.231 275.341 248.03C275.346 247.93 275.352 247.839 275.357 247.76C275.36 247.72 275.363 247.683 275.365 247.648C275.367 247.631 275.368 247.614 275.369 247.599L275.372 247.563C275.381 247.559 275.661 247.578 285.335 248.419L275.373 247.553ZM241.457 144.207C260.797 144.207 276.475 159.885 276.476 179.225L276.464 180.129C275.984 199.051 260.495 214.243 241.457 214.243L240.554 214.231C221.631 213.752 206.439 198.262 206.439 179.225C206.44 159.885 222.118 144.207 241.457 144.207ZM399.249 144.207C418.123 144.207 433.423 159.507 433.423 178.381C433.423 197.255 418.123 212.555 399.249 212.556L398.367 212.544C380.194 212.084 365.547 197.437 365.086 179.264L365.075 178.381C365.075 159.507 380.375 144.207 399.249 144.207ZM241.457 164.207C233.163 164.207 226.44 170.931 226.439 179.225C226.439 187.519 233.163 194.243 241.457 194.243C249.751 194.243 256.476 187.519 256.476 179.225C256.475 170.931 249.751 164.207 241.457 164.207ZM399.249 164.207C391.421 164.207 385.075 170.553 385.075 178.381C385.075 186.209 391.421 192.556 399.249 192.556C407.077 192.555 413.423 186.209 413.423 178.381C413.423 170.553 407.077 164.207 399.249 164.207Z" fill="url(#paint1_linear_238_356)"/>
<defs>
<linearGradient id="paint0_linear_238_356" x1="0" y1="184.003" x2="642" y2="184.003" gradientUnits="userSpaceOnUse">
<stop stop-color="#FF763B"/>
<stop offset="0.975962" stop-color="#FFBE56"/>
</linearGradient>
<linearGradient id="paint1_linear_238_356" x1="320.563" y1="56" x2="320.563" y2="311.967" gradientUnits="userSpaceOnUse">
<stop stop-color="#FF763B"/>
<stop offset="1" stop-color="#FFBE56"/>
</linearGradient>
</defs>
</svg>
