<svg width="150" height="145" viewBox="0 0 150 145" fill="none" xmlns="http://www.w3.org/2000/svg">
<path d="M83.5 0C84.3101 0.115091 84.6529 0.382099 85 1L88 12.5C88.4435 13.0355 88.7298 13.3314 89.0195 13.5918C94.226 14.7953 99.1812 16.6548 103.794 19.0781C104.009 19.0509 104.238 19.0002 104.497 18.9219L113.418 12.0176C114.174 11.7136 114.633 11.5902 115.529 11.8135L129.041 22.9346C129.593 23.5381 129.688 23.9626 129.563 24.6602L124.571 35.4453C124.573 36.0987 124.603 36.5005 124.654 36.8662C127.33 40.4379 129.628 44.3078 131.492 48.417C131.84 48.8409 132.214 49.1218 132.859 49.3896L144.135 49.7061C144.912 49.9502 145.346 50.1449 145.897 50.8857L149.297 68.0527C149.341 68.8695 149.146 69.2574 148.607 69.7178L137.909 74.8945C137.414 75.5018 137.175 75.8521 136.959 76.2324C136.792 80.961 136.095 85.5545 134.926 89.9561C134.918 90.4579 135.018 90.8976 135.301 91.4863L143.493 99.2412C143.91 99.9415 144.103 100.376 144.02 101.296L135.104 116.354C134.593 116.993 134.188 117.152 133.479 117.136L122.405 113.959C118.927 118.081 114.921 121.744 110.491 124.842C110.468 124.918 110.443 124.997 110.422 125.081L111.74 136.284C111.611 137.089 111.481 137.546 110.827 138.199L94.332 144.044C93.53 144.206 93.1175 144.069 92.584 143.603L86.6836 134.899C82.8997 135.621 78.9941 136 75 136C71.2487 136 67.5755 135.666 64.0078 135.027L57.7148 144.017C57.0831 144.531 56.6812 144.786 55.7588 144.839L39.5557 138.229C38.849 137.816 38.6319 137.44 38.5439 136.736L40.0732 125.231C35.491 122.101 31.3494 118.374 27.7627 114.159L17.3105 117.4C16.4959 117.42 16.0222 117.376 15.2607 116.853L6.50195 101.702C6.19613 100.943 6.25595 100.512 6.61719 99.9023L15.0723 91.5498C15.1739 91.2756 15.2515 91.0462 15.3154 90.8447C13.9899 86.1387 13.2069 81.2056 13.0361 76.1172L12.7402 77.6367C12.56 76.6335 12.3782 76.1082 11.6514 75.3867L1.33496 70.8242C0.707827 70.3038 0.380458 69.9592 0.150391 69.0645L3.50488 51.8887C3.77314 51.1158 4.10149 50.8306 4.77441 50.6084L16.6357 49.8691C17.5579 49.3668 17.8793 49.1173 18.3828 48.6943C20.2637 44.4926 22.5977 40.5378 25.3242 36.8936L24.833 37.29C25.3418 36.4068 25.5419 35.8881 25.4512 34.8682L20.5029 24.7305C20.3588 23.9284 20.3307 23.4536 20.7314 22.6211L34.3652 11.6504C35.0686 11.2322 35.5034 11.2254 36.1611 11.4893L45.708 18.5684C46.1889 18.6666 46.5339 18.721 46.832 18.7529C51.2187 16.5119 55.9076 14.7784 60.8213 13.6289C61.2832 13.3746 61.6231 13.0644 62 12.5L64.5 1.5C64.8905 0.784718 65.1659 0.397345 66 0H83.5ZM75 24C47.3858 24 25 46.3858 25 74C25 100.16 45.0903 121.627 70.6836 123.815L71.5 123V103C71.6984 100.862 72.0614 99.7606 73.5 98C75.401 95.9313 76.8977 96.1105 79 96H88.3018C89.4235 91.4083 93.5627 88 98.5 88C104.299 88 109 92.701 109 98.5C109 104.299 104.299 109 98.5 109C93.7437 109 89.7286 105.837 88.4375 101.5H79C78.4704 101.592 78.0687 101.578 77.5 102C77.2275 102.497 77.1118 102.676 77 103V123L77.6211 123.932C104.017 122.568 125 100.735 125 74C125 46.3858 102.614 24 75 24ZM75 33C81.6274 33 87 38.3726 87 45C87 50.7699 82.9272 55.5859 77.5 56.7363V66.5H88.4375C89.7286 62.1631 93.7437 59 98.5 59C104.299 59 109 63.701 109 69.5C109 75.299 104.299 80 98.5 80C93.5627 80 89.4235 76.5917 88.3018 72H58C56.9381 72.0632 56.5359 72.189 56 72.5C55.2305 73.0172 54.9021 73.3219 54.5 74V88.2627C59.9273 89.413 64 94.23 64 100C64 106.627 58.6274 112 52 112C45.3726 112 40 106.627 40 100C40 94.4085 43.8243 89.71 49 88.3779V74C49.5446 71.3503 50.1289 70.0473 52 68.5C53.6643 67.2699 54.9682 66.8717 58 66.5H72V56.6211C66.8244 55.2889 63 50.5914 63 45C63 38.3726 68.3726 33 75 33Z" fill="url(#paint0_linear_540_1253)"/>
<defs>
<linearGradient id="paint0_linear_540_1253" x1="134" y1="113" x2="-7" y2="-4.58835e-06" gradientUnits="userSpaceOnUse">
<stop stop-color="#F44E06"/>
<stop offset="1" stop-color="#FFBE56"/>
</linearGradient>
</defs>
</svg>
