<svg width="642" height="367" viewBox="0 0 642 367" fill="none" xmlns="http://www.w3.org/2000/svg">
<rect x="10" y="10" width="622" height="347" rx="30" stroke="url(#paint0_linear_238_337)" stroke-width="20"/>
<path d="M316.384 50.0882C320.112 47.2289 325.301 46.5991 329.749 48.9027H329.75L329.771 48.9134C329.787 48.9218 329.813 48.9349 329.847 48.9525C329.916 48.9878 330.02 49.042 330.157 49.1126C330.432 49.2541 330.84 49.4642 331.367 49.7337C332.421 50.2731 333.948 51.0506 335.826 51.9964C339.585 53.8901 344.73 56.4491 350.29 59.1156C361.897 64.6822 373.81 69.9782 379.375 71.4622C389.955 74.2835 418.857 79.7161 430.08 81.7874C438.583 83.3567 444.474 90.7963 444.45 99.1517C444.391 119.234 446.234 144.34 431.712 206.61C423.177 243.206 396.979 271.642 374.383 290.382C362.925 299.885 351.995 307.224 343.923 312.193C339.879 314.682 336.53 316.591 334.164 317.892C332.98 318.543 332.039 319.042 331.379 319.387C331.049 319.559 330.789 319.694 330.602 319.789C330.509 319.837 330.434 319.875 330.379 319.903C330.351 319.917 330.327 319.929 330.309 319.938C330.3 319.942 330.292 319.946 330.286 319.95C330.282 319.951 330.278 319.953 330.276 319.953C330.273 319.949 330.252 319.906 330.057 319.519C330.056 319.52 330.054 319.522 330.052 319.523L330.269 319.957C328.89 320.645 327.446 321.052 325.999 321.203C323.303 321.8 320.393 321.514 317.73 320.186L318.12 319.403C318.118 319.402 318.117 319.401 318.116 319.4C317.758 320.115 317.727 320.177 317.723 320.182C317.721 320.181 317.717 320.18 317.713 320.178C317.707 320.175 317.699 320.171 317.69 320.166C317.672 320.157 317.648 320.145 317.621 320.131C317.565 320.103 317.49 320.065 317.397 320.018C317.211 319.923 316.951 319.788 316.621 319.616C315.96 319.27 315.019 318.771 313.836 318.12C311.469 316.82 308.12 314.911 304.076 312.421C296.004 307.452 285.074 300.113 273.616 290.611C251.021 271.871 224.822 243.434 216.288 206.838C201.766 144.569 203.609 119.463 203.549 99.3802C203.525 91.0249 209.417 83.5853 217.92 82.0159C229.143 79.9447 258.044 74.5121 268.625 71.6908C274.189 70.2068 286.102 64.9108 297.71 59.3441C303.27 56.6776 308.414 54.1187 312.173 52.2249C313.909 51.3507 315.345 50.6197 316.384 50.0882ZM323.422 74.5521C319.565 76.4949 314.268 79.1286 308.52 81.8851C297.512 87.1644 283.348 93.6375 275.067 95.846C265.079 98.5094 241.875 102.971 228.526 105.47C228.394 123.907 228.188 147.794 240.634 201.16C247.33 229.872 268.556 253.934 289.576 271.368C299.925 279.951 309.85 286.618 317.182 291.132C319.747 292.711 321.986 294.019 323.799 295.048C325.68 293.987 328.059 292.602 330.817 290.904C338.149 286.39 348.074 279.722 358.423 271.139C379.443 253.706 400.669 229.643 407.365 200.932C419.811 147.565 419.606 123.678 419.473 105.242C406.124 102.742 382.92 98.2808 372.932 95.6175C364.651 93.409 350.487 86.9358 339.479 81.6566C333.732 78.9001 328.434 76.2663 324.578 74.3236C324.459 74.2636 324.341 74.2035 324.225 74.1449C323.965 74.2765 323.697 74.4133 323.422 74.5521ZM325.29 104.582C326.626 104.385 327.931 104.553 329.105 105.011L333.733 105.698L334.316 105.784L334.879 105.96L333.613 109.993V109.994C334.855 106.038 334.879 105.961 334.88 105.96L334.882 105.961C334.884 105.962 334.886 105.963 334.887 105.963C334.891 105.964 334.896 105.966 334.901 105.967C334.911 105.97 334.925 105.975 334.94 105.98C334.972 105.99 335.015 106.003 335.067 106.02C335.172 106.054 335.318 106.102 335.5 106.162C335.862 106.283 336.371 106.456 336.984 106.676C338.202 107.113 339.877 107.749 341.669 108.535C343.434 109.309 345.464 110.295 347.328 111.456C348.913 112.444 351.06 113.968 352.623 116.105L352.926 116.54C354.191 118.438 356.498 121.81 358.439 124.987C359.41 126.576 360.392 128.28 361.155 129.858C361.535 130.645 361.921 131.523 362.225 132.421C362.491 133.205 362.885 134.544 362.885 136.091V158.722C372.122 163.156 378.5 172.597 378.5 183.528V209.923H371C378.5 209.923 378.5 209.926 378.5 209.928V210.022C378.499 210.064 378.498 210.117 378.497 210.179C378.494 210.303 378.491 210.466 378.483 210.663C378.468 211.058 378.438 211.594 378.381 212.246C378.27 213.545 378.049 215.337 377.61 217.398C376.754 221.416 374.955 226.987 371.021 231.828C368.952 234.375 365.12 237.574 361.304 240.553C357.262 243.709 352.485 247.188 347.954 250.396C343.411 253.612 339.059 256.598 335.847 258.777C334.24 259.867 332.914 260.757 331.989 261.376C331.935 261.412 331.882 261.447 331.831 261.482C330.384 262.886 328.453 263.621 326.5 263.594C324.547 263.621 322.617 262.887 321.171 261.483C321.119 261.448 321.065 261.413 321.01 261.376C320.085 260.757 318.759 259.867 317.152 258.777C313.94 256.598 309.588 253.612 305.046 250.396C300.515 247.188 295.738 243.709 291.695 240.553C287.879 237.574 284.047 234.375 281.978 231.828C278.045 226.987 276.246 221.416 275.389 217.398C274.95 215.337 274.73 213.545 274.618 212.246C274.562 211.594 274.532 211.058 274.516 210.663C274.508 210.466 274.505 210.303 274.503 210.179C274.501 210.117 274.5 210.064 274.5 210.022V209.928C274.5 209.926 274.5 209.923 282 209.923H274.5V183.528C274.5 172.597 280.877 163.156 290.114 158.722V135.868C290.114 134.322 290.509 132.983 290.774 132.199C291.078 131.301 291.464 130.423 291.844 129.635C292.607 128.057 293.589 126.354 294.56 124.764C296.502 121.587 298.808 118.215 300.073 116.318L300.377 115.882C301.939 113.745 304.087 112.221 305.672 111.234C307.535 110.072 309.565 109.086 311.331 108.312C313.122 107.526 314.797 106.89 316.015 106.453C316.628 106.234 317.137 106.061 317.5 105.94C317.681 105.879 317.827 105.831 317.932 105.797C317.985 105.78 318.028 105.767 318.059 105.757C318.075 105.752 318.088 105.748 318.098 105.744C318.103 105.743 318.108 105.742 318.112 105.741C318.114 105.74 318.115 105.739 318.117 105.739L318.119 105.738C318.12 105.737 318.124 105.755 319.452 109.985L319.453 109.984L318.121 105.738L318.683 105.561L319.266 105.475L325.29 104.582ZM302 171.028C295.096 171.028 289.5 176.624 289.5 183.528V209.897C289.5 209.923 289.501 209.984 289.505 210.075C289.512 210.257 289.528 210.56 289.562 210.96C289.632 211.767 289.773 212.931 290.059 214.272C290.653 217.057 291.754 220.073 293.62 222.369C294.45 223.391 296.921 225.603 300.925 228.73C304.703 231.679 309.267 235.005 313.713 238.154C318.149 241.294 322.414 244.22 325.573 246.363C325.893 246.58 326.203 246.786 326.5 246.987C326.796 246.786 327.106 246.58 327.426 246.363C330.585 244.22 334.85 241.294 339.286 238.154C343.733 235.005 348.296 231.68 352.074 228.73C356.079 225.603 358.549 223.392 359.38 222.369C361.245 220.073 362.347 217.057 362.94 214.272C363.226 212.931 363.368 211.767 363.437 210.96C363.472 210.56 363.488 210.257 363.495 210.075C363.498 209.984 363.499 209.923 363.5 209.897V183.528C363.5 176.624 357.903 171.028 351 171.028H302ZM339.208 181.846C341.903 178.701 346.638 178.337 349.783 181.033C352.928 183.728 353.292 188.463 350.596 191.608L331.543 213.837C326.639 219.558 317.826 219.673 312.775 214.081L304.093 204.468C301.317 201.394 301.558 196.652 304.631 193.875C307.705 191.099 312.448 191.341 315.224 194.414L322.003 201.918L339.208 181.846ZM322.106 120.217C321.845 120.305 321.494 120.424 321.078 120.574C320.079 120.932 318.742 121.44 317.355 122.048C315.942 122.668 314.627 123.327 313.605 123.964C312.666 124.549 312.408 124.854 312.456 124.783C311.048 126.89 309.058 129.805 307.359 132.586C306.491 134.007 305.799 135.231 305.349 136.162C305.248 136.372 305.171 136.544 305.114 136.678V156.028H347.885V136.901C347.828 136.767 347.751 136.595 347.65 136.385C347.2 135.454 346.509 134.23 345.64 132.809C343.941 130.028 341.951 127.113 340.544 125.005C340.592 125.078 340.335 124.773 339.394 124.187C338.372 123.55 337.057 122.89 335.644 122.271C334.258 121.663 332.92 121.154 331.922 120.796C331.505 120.647 331.154 120.528 330.893 120.44L325.748 119.677L322.106 120.217Z" fill="url(#paint1_linear_238_337)"/>
<defs>
<linearGradient id="paint0_linear_238_337" x1="0" y1="184.003" x2="642" y2="184.003" gradientUnits="userSpaceOnUse">
<stop stop-color="#FF763B"/>
<stop offset="0.975962" stop-color="#FFBE56"/>
</linearGradient>
<linearGradient id="paint1_linear_238_337" x1="324" y1="47.5" x2="324" y2="321.5" gradientUnits="userSpaceOnUse">
<stop stop-color="#FF763B"/>
<stop offset="1" stop-color="#FFBE56"/>
</linearGradient>
</defs>
</svg>
